<svg id="Layer_1" data-name="Layer 1" xmlns="http://www.w3.org/2000/svg" viewBox="0 0 3200 2000"><defs><style>.cls-1{opacity:0.25;}.cls-2{fill:#fff;}.cls-3{fill:#ccdea0;}.cls-4{fill:#33b08c;}.cls-5{fill:#152547;}</style></defs><path class="cls-1" d="M2400,560c-12.21,0-24.32.34-36.4.83C2261.91,235.84,1958.51,0,1600,0S938.09,235.84,836.4,560.83c-12.08-.49-24.19-.83-36.4-.83C358.17,560,0,882.35,0,1280s358.17,720,800,720H2400c441.83,0,800-322.36,800-720S2841.83,560,2400,560Z"/><path class="cls-2" d="M2285.71,573.33c-11.62,0-23.16.33-34.66.79C2154.2,264.61,1865.25,40,1523.81,40S893.42,264.61,796.57,574.12c-11.5-.46-23-.79-34.67-.79C341.12,573.33,0,880.34,0,1259.05s341.12,685.71,761.9,685.71H2285.71c420.79,0,761.91-307,761.91-685.71S2706.5,573.33,2285.71,573.33Z"/><polygon class="cls-3" points="1152.38 724.04 1895.24 1281.19 1523.81 1652.62 1152.38 1281.19 1152.38 724.04"/><path class="cls-4" d="M1028.57,569.28v742.86l495.24,495.24,495.24-495.24V569.28Zm866.67,711.91-371.43,371.43-371.43-371.43V724Z"/><polygon class="cls-5" points="1400 776.66 1400 1024.28 1449.52 1024.28 1449.52 1420.47 1598.1 1420.47 1598.1 1024.28 1647.62 1024.28 1647.62 776.66 1400 776.66"/></svg>