<svg id="Layer_1" data-name="Layer 1" xmlns="http://www.w3.org/2000/svg" viewBox="0 0 2000 2000"><defs><style>.cls-1{opacity:0.25;}.cls-2{fill:#33b08c;}.cls-3{fill:#ccdea0;}.cls-4{fill:#152547;}</style></defs><g class="cls-1"><polygon points="184.26 806.04 184.26 2000 394.44 2000 394.44 1068.77 1636.08 2000 1865.74 2000 1865.74 806.04 184.26 806.04"/><polygon points="1636.08 2000 394.44 1068.77 394.44 2000 1636.08 2000"/><polygon points="847.11 965.83 847.11 1302.13 914.37 1302.13 914.37 1840.2 1116.15 1840.2 1116.15 1302.13 1183.41 1302.13 1183.41 965.83 847.11 965.83"/><polygon points="268.33 0 268.33 805.93 419.67 805.93 419.67 166.56 1630.34 166.56 1630.34 805.93 1781.67 805.93 1781.67 0 268.33 0"/><polygon points="1457.79 166.56 1630.34 166.56 1630.34 805.93 1781.67 805.93 1781.67 0 1624.35 0 1457.79 166.56"/></g><polygon class="cls-2" points="134.26 806.04 134.26 2000 344.44 2000 344.44 1068.77 1586.08 2000 1815.74 2000 1815.74 806.04 134.26 806.04"/><polygon class="cls-3" points="1586.08 2000 344.44 1068.77 344.44 2000 1586.08 2000"/><polygon class="cls-4" points="797.11 965.83 797.11 1302.13 864.37 1302.13 864.37 1840.2 1066.15 1840.2 1066.15 1302.13 1133.41 1302.13 1133.41 965.83 797.11 965.83"/><polygon class="cls-3" points="218.33 0 218.33 805.93 369.67 805.93 369.67 166.56 1580.34 166.56 1580.34 805.93 1731.67 805.93 1731.67 0 218.33 0"/><polygon class="cls-2" points="1407.79 166.56 1580.34 166.56 1580.34 805.93 1731.67 805.93 1731.67 0 1574.35 0 1407.79 166.56"/></svg>