<svg id="Layer_1" data-name="Layer 1" xmlns="http://www.w3.org/2000/svg" viewBox="0 0 2000 2000"><defs><style>.cls-1{fill:#fff;}</style></defs><path class="cls-1" d="M1999.74,1000.17c0,188.31.69,376.63-.18,564.94-1,207.79-158.57,392.37-363.3,427.54a498,498,0,0,1-84.45,7.22q-552.94-.11-1105.89,0c-208.17,0-384.75-138.72-433.92-341A412.84,412.84,0,0,1,.2,1561.07Q.12,999.36.37,437.64C.75,230.87,151.82,49.35,354.62,9.11a465.27,465.27,0,0,1,90.72-9q554.81,0,1109.59,0c210.57.06,389,143.37,434.81,349,7.17,32.22,10.13,64.94,10.11,98q-.18,276.48,0,552.95ZM242.93,998.45c0,35.08-.22,70.16,0,105.24.65,86.14-.08,172.35,8.33,258.22,5.89,60.18,20.41,118.28,48.94,171.85C363.68,1652.88,465.54,1718,596.38,1741.3c59,10.51,118.78,12.06,178.4,12.44q224.33,1.42,448.66,0c63-.43,126.2-1.88,188.38-14.31,65.65-13.12,126.76-36.81,180-78.47,96.69-75.64,142-178.19,154.77-297.34,6.36-59.4,7.54-119.12,7.56-178.83q.06-182.32,0-364.66c0-61.56-1.35-123.09-7.46-184.37-6.24-62.69-21.71-123.07-52.54-178.32-64.28-115.16-165-178-293-200.67-55.68-9.85-112-11.52-168.27-12.26-171.68-2.26-343.39-3.64-515.05,1.5-50.15,1.5-100.22,4.66-149.21,16.5C418,298.92,317.17,389.53,270.54,538.38c-18.76,59.89-22.48,121.9-24.83,184.09C242.24,814.44,243.49,906.46,242.93,998.45Z"/><path class="cls-1" d="M1619.49,999.31c-.31,86.46,1.4,172.94-2,259.37-1.92,49.48-3,99.09-15.37,147.45-29,112.77-102.44,177.85-215.43,200.37-40.92,8.15-82.46,9.51-124,10.93-116.59,4-233.22,2-349.84,2.31-72.31.22-144.61-.27-216.86-3.94-45.91-2.33-91.39-7.19-134.94-23C474,1561.16,420.65,1499,397,1410.13c-12.86-48.3-14.88-97.81-16.27-147.3-4.4-157.21-2.63-314.46-1.51-471.69.38-52.56,1.45-105.25,8.71-157.48C398.6,556.85,428,490.09,491.73,442c38.75-29.27,83.23-44.64,130.53-52.11,68.93-10.88,138.59-10.69,208.08-11.05q181.86-.94,363.71.24c56.88.38,113.88,1.22,170.4,8.93,76.17,10.39,142.44,39.6,190.59,102.31,30,39,45.67,84.06,53.21,132,10.94,69.54,10.26,139.81,11.11,209.92C1620,887.91,1619.49,943.61,1619.49,999.31ZM1387,998.68c-.08-214.34-173.67-387.7-388.1-387.59S611.11,784.55,611.1,999s173.12,387.83,387.64,388C1213.53,1387.26,1387.07,1213.67,1387,998.68ZM1492.42,596a90.52,90.52,0,0,0-181-.38c-.24,50,40.94,91.22,90.94,91.1C1452.14,686.62,1492.43,646.05,1492.42,596Z"/><path class="cls-1" d="M1251.87,999.36a253,253,0,0,1-255.2,252.54c-139.42-.82-251.44-115.48-250.46-256.35,1-138.17,115.64-250,255.66-249.3C1139.35,746.93,1252.57,861.56,1251.87,999.36Z"/></svg>