<svg id="Layer_1" data-name="Layer 1" xmlns="http://www.w3.org/2000/svg" viewBox="0 0 2017.19 2000"><defs><style>.cls-1{fill:#152547;}.cls-2{fill:#ccdea0;}.cls-3{fill:#33b08c;}.cls-4{fill:#fff;}</style></defs><rect class="cls-1" x="626.91" y="432.37" width="55.01" height="444.1" transform="translate(-271.07 654.42) rotate(-45)"/><rect class="cls-1" x="596.2" y="1043.67" width="55.01" height="699.63" transform="translate(79.38 2819.86) rotate(-135)"/><rect class="cls-1" x="1355.1" y="389.62" width="55.01" height="489.94" transform="translate(1911.53 2060.96) rotate(-135)"/><rect class="cls-1" x="1298.81" y="1071.5" width="55.01" height="509.65" transform="translate(-549.38 1326.32) rotate(-45)"/><polygon class="cls-2" points="843.55 802.29 1173.64 1049.86 1008.6 1214.9 843.55 1049.86 843.55 802.29"/><path class="cls-3" d="M788.54,733.52v330.09l220.06,220.06,220.05-220.06V733.52Zm385.1,316.34-165,165-165.05-165V802.29Z"/><polygon class="cls-2" points="2017.19 1896.85 2017.19 1484.24 1467.05 1484.24 1467.05 1896.85 1714.61 1896.85 1714.61 1931.23 1467.05 1931.23 1467.05 2000 2017.19 2000 2017.19 1931.23 1769.63 1931.23 1769.63 1896.85 2017.19 1896.85"/><polygon class="cls-3" points="1881.03 1896.85 2017.19 1896.85 2017.19 1484.24 1467.05 1484.24 1467.05 1526.76 1881.03 1896.85"/><polygon class="cls-3" points="2017.19 1931.23 1919.5 1931.23 1996.42 2000 2017.19 2000 2017.19 1931.23"/><polygon class="cls-3" points="1467.05 1998.85 1467.05 2000 1468.34 2000 1467.05 1998.85"/><rect class="cls-4" x="1494.56" y="1504.87" width="495.13" height="371.35"/><path class="cls-2" d="M412.59,1666.48c-2.1,0-4.18,0-6.26.14a137.57,137.57,0,0,0-262.54,0c-2.08-.09-4.16-.14-6.26-.14C61.57,1666.48,0,1721.9,0,1790.26S61.57,1914,137.53,1914H412.59c76,0,137.53-55.42,137.53-123.78S488.54,1666.48,412.59,1666.48Z"/><path class="cls-3" d="M486.31,1894.75c38.36-22,63.83-60.54,63.83-104.49,0-68.37-61.57-123.78-137.53-123.78-2.09,0-4.18,0-6.25.14a137.57,137.57,0,0,0-262.55,0c-2.07-.09-4.16-.14-6.25-.14a152.22,152.22,0,0,0-38.18,4.86Z"/><rect class="cls-2" x="1467.05" y="68.77" width="550.14" height="137.54"/><path class="cls-3" d="M2017.19,206.3l-202.81-97.61L1467.05,68.77h550.14Z"/><circle class="cls-4" cx="1538.55" cy="137.54" r="41.26"/><rect class="cls-1" x="1593.56" y="104.53" width="385.1" height="11"/><rect class="cls-1" x="1593.56" y="132.03" width="385.1" height="11"/><rect class="cls-1" x="1593.56" y="159.54" width="385.1" height="11"/><rect class="cls-2" x="1467.05" y="206.3" width="550.14" height="137.54"/><path class="cls-3" d="M2017.19,343.84l-202.81-97.61L1467.05,206.3h550.14Z"/><circle class="cls-4" cx="1538.55" cy="275.07" r="41.26"/><rect class="cls-1" x="1593.56" y="242.06" width="385.1" height="11"/><rect class="cls-1" x="1593.56" y="269.57" width="385.1" height="11"/><rect class="cls-1" x="1593.56" y="297.08" width="385.1" height="11"/><rect class="cls-2" x="1467.05" y="343.84" width="550.14" height="137.54"/><path class="cls-3" d="M2017.19,481.38l-202.81-97.62-347.33-39.92h550.14Z"/><circle class="cls-4" cx="1538.55" cy="412.61" r="41.26"/><rect class="cls-1" x="1593.56" y="379.6" width="385.1" height="11"/><rect class="cls-1" x="1593.56" y="407.11" width="385.1" height="11"/><rect class="cls-1" x="1593.56" y="434.61" width="385.1" height="11"/><path class="cls-2" d="M235.06,338.6,129.47,549.78H340.64Zm0,63.36,63.35,126.71H171.7Z"/><path class="cls-2" d="M235.06,402,129.47,190.78H340.64Zm0-63.36,63.35-126.7H171.7Z"/><circle class="cls-2" cx="235.06" cy="141.93" r="36.96"/><path class="cls-2" d="M235.06,19.8A85.51,85.51,0,0,1,298,47.28l14.52-13.46a105.54,105.54,0,0,0-154.85,0l14.52,13.46A85.52,85.52,0,0,1,235.06,19.8Z"/><path class="cls-2" d="M235.06,59.39A46,46,0,0,1,268.9,74.22l14.55-13.49a66,66,0,0,0-96.79,0l14.55,13.49A46,46,0,0,1,235.06,59.39Z"/><path class="cls-2" d="M254.39,87.66a26.3,26.3,0,0,0-38.67,0l19.34,17.93Z"/><polygon class="cls-3" points="340.64 550.14 252.28 373.42 320.01 550.14 340.64 550.14"/><polygon class="cls-3" points="298.41 212.26 237.33 334.41 251.08 370.27 340.64 191.14 182.42 191.14 190.51 212.26 298.41 212.26"/><path class="cls-3" d="M198.1,142.29a37,37,0,1,0,37.58-36.92l-.62.58-.63-.58A36.93,36.93,0,0,0,198.1,142.29Z"/><path class="cls-3" d="M235.06,20.16A85.51,85.51,0,0,1,298,47.64l14.52-13.46a105.54,105.54,0,0,0-154.85,0l14.52,13.46A85.52,85.52,0,0,1,235.06,20.16Z"/><path class="cls-3" d="M235.06,40a65.84,65.84,0,0,0-48.4,21.13l14.55,13.49a46,46,0,0,1,67.69,0l14.55-13.49A65.84,65.84,0,0,0,235.06,40Z"/><path class="cls-3" d="M235.68,105.37,254.39,88a26.3,26.3,0,0,0-38.67,0l18.71,17.35c.21,0,.41,0,.63,0S235.47,105.36,235.68,105.37Z"/><polygon class="cls-3" points="252.28 373.42 251.08 370.27 250.89 370.64 252.28 373.42"/><polygon class="cls-3" points="250.89 370.64 235.06 338.96 219.22 370.64 235.06 402.32 250.89 370.64"/><path class="cls-2" d="M414.27,344,329.8,513H498.74Zm0,50.69L465,496.07H363.58Z"/><path class="cls-2" d="M414.27,394.71,329.8,225.76H498.74Zm0-50.69L465,242.66H363.58Z"/><circle class="cls-2" cx="414.27" cy="186.68" r="29.57"/><path class="cls-2" d="M414.27,89a68.39,68.39,0,0,1,50.32,22l11.62-10.76a84.42,84.42,0,0,0-123.88,0L363.94,111A68.43,68.43,0,0,1,414.27,89Z"/><path class="cls-2" d="M414.27,120.65a36.83,36.83,0,0,1,27.07,11.86L453,121.73a52.77,52.77,0,0,0-77.43,0l11.64,10.78A36.86,36.86,0,0,1,414.27,120.65Z"/><path class="cls-2" d="M429.74,143.27a21,21,0,0,0-30.94,0l15.47,14.34Z"/><polygon class="cls-3" points="498.74 513.25 428.05 371.87 482.23 513.25 498.74 513.25"/><polygon class="cls-3" points="464.95 242.94 416.09 340.67 427.08 369.36 498.74 226.05 372.16 226.05 378.63 242.94 464.95 242.94"/><path class="cls-3" d="M384.7,187a29.57,29.57,0,1,0,30.07-29.54l-.5.47-.51-.47A29.55,29.55,0,0,0,384.7,187Z"/><path class="cls-3" d="M414.27,89.26a68.4,68.4,0,0,1,50.32,22l11.62-10.77a84.44,84.44,0,0,0-123.88,0l11.61,10.77A68.44,68.44,0,0,1,414.27,89.26Z"/><path class="cls-3" d="M414.27,105.1A52.7,52.7,0,0,0,375.55,122l11.64,10.79a36.83,36.83,0,0,1,54.15,0L453,122A52.66,52.66,0,0,0,414.27,105.1Z"/><path class="cls-3" d="M414.77,157.43l15-13.87a21,21,0,0,0-30.94,0l15,13.87.51,0Z"/><polygon class="cls-3" points="428.05 371.87 427.08 369.36 426.94 369.65 428.05 371.87"/><polygon class="cls-3" points="426.94 369.65 414.27 344.31 401.6 369.65 414.27 394.99 426.94 369.65"/><path class="cls-2" d="M93.64,391.53,51.4,476h84.48Zm0,25.34L119,467.56H68.3Z"/><path class="cls-2" d="M93.64,416.87,51.4,332.4h84.48Zm0-25.34L119,340.85H68.3Z"/><circle class="cls-2" cx="93.64" cy="312.86" r="14.78"/><path class="cls-2" d="M93.64,264a34.2,34.2,0,0,1,25.16,11l5.81-5.38a42.21,42.21,0,0,0-61.94,0L68.48,275A34.21,34.21,0,0,1,93.64,264Z"/><path class="cls-2" d="M93.64,279.85a18.41,18.41,0,0,1,13.54,5.93l5.82-5.4a26.4,26.4,0,0,0-38.72,0l5.82,5.4A18.43,18.43,0,0,1,93.64,279.85Z"/><path class="cls-2" d="M101.38,291.16a10.52,10.52,0,0,0-15.47,0l7.73,7.17Z"/><polygon class="cls-3" points="135.88 476.15 100.53 405.46 127.62 476.15 135.88 476.15"/><polygon class="cls-3" points="118.98 340.99 94.55 389.85 100.05 404.2 135.88 332.55 72.59 332.55 75.83 340.99 118.98 340.99"/><path class="cls-3" d="M78.86,313a14.78,14.78,0,1,0,15-14.77l-.25.23-.25-.23A14.77,14.77,0,0,0,78.86,313Z"/><path class="cls-3" d="M93.64,264.15a34.21,34.21,0,0,1,25.16,11l5.81-5.39a42.21,42.21,0,0,0-61.94,0l5.81,5.39A34.22,34.22,0,0,1,93.64,264.15Z"/><path class="cls-3" d="M93.64,272.07a26.34,26.34,0,0,0-19.36,8.46l5.82,5.39a18.42,18.42,0,0,1,27.08,0l5.82-5.39A26.33,26.33,0,0,0,93.64,272.07Z"/><path class="cls-3" d="M93.89,298.24l7.49-6.94a10.52,10.52,0,0,0-15.47,0l7.48,6.94.25,0Z"/><polygon class="cls-3" points="100.53 405.46 100.05 404.2 99.98 404.35 100.53 405.46"/><polygon class="cls-3" points="99.98 404.35 93.64 391.68 87.31 404.35 93.64 417.02 99.98 404.35"/></svg>