<svg id="Layer_1" data-name="Layer 1" xmlns="http://www.w3.org/2000/svg" viewBox="0 0 2000 2000"><defs><style>.cls-1{fill:#fff;}</style></defs><path class="cls-1" d="M1996.15,129.69c-6.82-56.85-43-91.18-89.88-117-16.81-9.25-36.84-6.82-54.71-12.71H148.44c-5.16,3.28-11.27,3-16.85,3.61C73.63,9.83,38.72,46.27,12.44,94,3.83,109.59,6.77,128.3,0,144.52v1711c2.76,4.55,3.13,9.68,3.78,14.8,7.31,57.82,44.12,92.7,92.56,118.25,14.94,7.88,32.76,4.93,48.19,11.48h1707c5.16-3.28,11.27-3,16.85-3.61,57.95-6.22,92.85-42.66,119.14-90.34,8.61-15.62,5.76-34.33,12.45-50.58v-1707C1996.85,142.57,1996.9,136,1996.15,129.69Zm-1377.47,1581c0,51.72-17.32,69-69.15,69q-97.59.09-195.19,0c-45.85-.13-65-19.57-65.06-65.53q0-456.76,0-913.51c0-46.92,19.3-66,66.53-66.08q98.57-.06,197.14,0c47,0,65.69,18.83,65.72,66.53q.12,228.37,0,456.75Q618.7,1484.3,618.68,1710.72ZM453.63,645.8C335,645.3,240.72,549.94,241.68,431.3c1-117.22,97.5-212.28,214.05-210.75,117.81,1.54,212.42,97.16,211.55,213.82C666.41,551.67,570.8,646.29,453.63,645.8ZM1789.77,1721.1c0,39.75-18.51,58.42-58.39,58.56q-108.39.4-216.77,0c-43.86-.08-61.67-17.87-61.67-61.28,0-162.09.26-324.18-.12-486.27-.09-41.74-4.42-83.09-18.75-122.83-22.41-62.14-64.86-99.09-131.77-105.29-74.83-6.94-132.74,20.11-168.64,87.43-25.2,47.25-36.83,98.25-36.75,152q.38,236.31.08,472.61c0,45.87-17.7,63.55-63.75,63.61q-102.53.13-205,0c-42.35-.1-61.14-18.5-61.15-60.33q-.15-461.86,0-923.73c0-42.12,18.88-61,60.47-61q105.45-.14,210.91,0c39,.08,58.31,19.69,58.56,59,.14,21.11,0,42.22,0,63.33l4,1c6.69-8.42,13.25-16.95,20.11-25.24,46.77-56.54,107.4-89.47,178.73-103.14,72.33-13.85,144.84-15,217.05,1.22,113.46,25.49,187.83,95.56,229.54,202.51,33.92,87,41.78,178.36,42.52,270.32C1790.34,1376.08,1789.7,1548.59,1789.77,1721.1Z"/></svg>