<svg id="Layer_1" data-name="Layer 1" xmlns="http://www.w3.org/2000/svg" viewBox="0 0 2024.69 2000"><defs><style>.cls-1{opacity:0.25;}.cls-2{fill:#fff;}.cls-3{fill:#152547;}.cls-4{fill:#33b08c;}.cls-5{fill:#ccdea0;}</style></defs><g class="cls-1"><rect x="49.38" y="946.5" width="1053.5" height="1053.5"/><rect x="1234.57" y="1078.19" width="790.12" height="790.12"/><rect x="1234.57" y="24.69" width="790.12" height="790.12"/><rect x="181.07" y="24.69" width="790.12" height="790.12"/><path d="M1516.18,473.94a125.74,125.74,0,0,1,167.64-167.63l30.92-30.93a167.59,167.59,0,0,0-229.48,229.49Z"/><path d="M1743.08,365.56A125.75,125.75,0,0,1,1575.44,533.2l-30.92,30.92A167.58,167.58,0,0,0,1774,334.64Z"/><path d="M1893,419.75a262.48,262.48,0,0,0-14.13-85.15h-25.45A240.07,240.07,0,0,0,1714.78,196V170.51a263.66,263.66,0,0,0-170.31,0V196A240.08,240.08,0,0,0,1405.84,334.6h-25.45a263.63,263.63,0,0,0,0,170.3h25.45a240.1,240.1,0,0,0,138.63,138.64V669a263.48,263.48,0,0,0,170.31,0V643.54A240.09,240.09,0,0,0,1853.42,504.9h25.45A262.48,262.48,0,0,0,1893,419.75ZM1629.63,599.33A179.58,179.58,0,1,1,1809.2,419.75,179.57,179.57,0,0,1,1629.63,599.33Z"/><path d="M462.69,473.94A125.74,125.74,0,0,1,630.32,306.31l30.93-30.93A167.59,167.59,0,0,0,431.76,504.87Z"/><path d="M689.58,365.56A125.75,125.75,0,0,1,521.94,533.2L491,564.12A167.58,167.58,0,0,0,720.5,334.64Z"/><path d="M839.51,419.75a262.49,262.49,0,0,0-14.14-85.15H799.92A240.08,240.08,0,0,0,661.29,196V170.51a263.66,263.66,0,0,0-170.31,0V196A240.05,240.05,0,0,0,352.35,334.6H326.9a263.54,263.54,0,0,0,0,170.3h25.45A240.09,240.09,0,0,0,491,643.54V669a263.48,263.48,0,0,0,170.31,0V643.54A240.1,240.1,0,0,0,799.92,504.9h25.45A262.49,262.49,0,0,0,839.51,419.75ZM576.13,599.33A179.58,179.58,0,1,1,755.71,419.75,179.58,179.58,0,0,1,576.13,599.33Z"/><path d="M1516.18,1527.44a125.74,125.74,0,0,1,167.64-167.63l30.92-30.93a167.58,167.58,0,0,0-229.48,229.48Z"/><path d="M1743.08,1419.06a125.75,125.75,0,0,1-167.64,167.64l-30.92,30.92A167.58,167.58,0,0,0,1774,1388.14Z"/><path d="M1893,1473.25a262.48,262.48,0,0,0-14.13-85.15h-25.45a240.09,240.09,0,0,0-138.64-138.64V1224a263.66,263.66,0,0,0-170.31,0v25.45a240.11,240.11,0,0,0-138.63,138.63h-25.45a263.66,263.66,0,0,0,0,170.31h25.45A240.1,240.1,0,0,0,1544.47,1697v25.45a263.48,263.48,0,0,0,170.31,0V1697a240.09,240.09,0,0,0,138.64-138.64h25.45A262.48,262.48,0,0,0,1893,1473.25Zm-263.37,179.57a179.57,179.57,0,1,1,179.57-179.57A179.56,179.56,0,0,1,1629.63,1652.82Z"/><path d="M547,1401.34a105.23,105.23,0,0,1-72.08-72.08l-30.43-30.43a131.59,131.59,0,0,0,132.94,132.94Z"/><path d="M574.84,1168.46l30.44,30.44A105.21,105.21,0,0,1,677.35,1271l30.44,30.44a131.61,131.61,0,0,0-132.95-133Z"/><path d="M523.46,1558.21v351.55H628.81V1558.21c120.21-24.4,210.7-130.67,210.7-258.09,0-145.46-117.92-263.38-263.38-263.38s-263.37,117.92-263.37,263.38C312.76,1427.54,403.24,1533.81,523.46,1558.21Zm52.67-442.45a184.36,184.36,0,1,1-184.36,184.36A184.36,184.36,0,0,1,576.13,1115.76Z"/></g><rect class="cls-2" y="921.81" width="1053.5" height="1053.5"/><rect class="cls-2" x="1185.19" y="1053.5" width="790.12" height="790.12"/><rect class="cls-2" x="1185.19" width="790.12" height="790.12"/><rect class="cls-2" x="131.69" width="790.12" height="790.12"/><path class="cls-3" d="M1466.8,449.25a125.74,125.74,0,0,1,167.64-167.63l30.92-30.93a167.58,167.58,0,0,0-229.48,229.48Z"/><path class="cls-3" d="M1693.69,340.87a125.75,125.75,0,0,1-167.63,167.64l-30.93,30.92A167.59,167.59,0,0,0,1724.62,310Z"/><path class="cls-4" d="M1843.62,395.06a262.22,262.22,0,0,0-14.14-85.15H1804A240.07,240.07,0,0,0,1665.4,171.27V145.82a263.66,263.66,0,0,0-170.31,0v25.45A240.11,240.11,0,0,0,1356.46,309.9H1331a263.48,263.48,0,0,0,0,170.31h25.45a240.1,240.1,0,0,0,138.63,138.64V644.3a263.48,263.48,0,0,0,170.31,0V618.85A240.07,240.07,0,0,0,1804,480.21h25.45A262.22,262.22,0,0,0,1843.62,395.06ZM1580.25,574.64a179.58,179.58,0,1,1,179.57-179.58A179.58,179.58,0,0,1,1580.25,574.64Z"/><path class="cls-5" d="M413.3,449.25A125.74,125.74,0,0,1,580.94,281.62l30.92-30.93A167.58,167.58,0,0,0,382.38,480.17Z"/><path class="cls-5" d="M640.19,340.87A125.75,125.75,0,0,1,472.56,508.51l-30.92,30.92A167.58,167.58,0,0,0,671.12,310Z"/><path class="cls-4" d="M790.12,395.06A262.48,262.48,0,0,0,776,309.91H750.54A240.09,240.09,0,0,0,611.9,171.27V145.82a263.66,263.66,0,0,0-170.31,0v25.45A240.11,240.11,0,0,0,303,309.9H277.51a263.48,263.48,0,0,0,0,170.31H303A240.1,240.1,0,0,0,441.59,618.85V644.3a263.48,263.48,0,0,0,170.31,0V618.85A240.09,240.09,0,0,0,750.54,480.21H776A262.48,262.48,0,0,0,790.12,395.06ZM526.75,574.64A179.58,179.58,0,1,1,706.32,395.06,179.57,179.57,0,0,1,526.75,574.64Z"/><path class="cls-3" d="M1466.8,1502.75a125.75,125.75,0,0,1,167.64-167.64l30.92-30.92a167.58,167.58,0,0,0-229.48,229.48Z"/><path class="cls-3" d="M1693.69,1394.37A125.74,125.74,0,0,1,1526.06,1562l-30.93,30.93a167.59,167.59,0,0,0,229.49-229.48Z"/><path class="cls-5" d="M1843.62,1448.56a262.33,262.33,0,0,0-14.14-85.16H1804a240.08,240.08,0,0,0-138.63-138.63v-25.45a263.66,263.66,0,0,0-170.31,0v25.45a240.11,240.11,0,0,0-138.63,138.63H1331a263.48,263.48,0,0,0,0,170.31h25.45a240.1,240.1,0,0,0,138.63,138.64v25.45a263.66,263.66,0,0,0,170.31,0v-25.45A240.07,240.07,0,0,0,1804,1533.71h25.45A262.22,262.22,0,0,0,1843.62,1448.56Zm-263.37,179.57a179.57,179.57,0,1,1,179.57-179.57A179.58,179.58,0,0,1,1580.25,1628.13Z"/><path class="cls-3" d="M497.6,1376.64a105.21,105.21,0,0,1-72.07-72.07l-30.44-30.44a131.61,131.61,0,0,0,133,132.95Z"/><path class="cls-3" d="M525.46,1143.77l30.44,30.44A105.21,105.21,0,0,1,628,1246.28l30.44,30.44a131.61,131.61,0,0,0-132.95-133Z"/><path class="cls-4" d="M474.07,1533.52v351.55H579.42V1533.52c120.22-24.4,210.7-130.68,210.7-258.09,0-145.46-117.91-263.38-263.37-263.38S263.37,1130,263.37,1275.43C263.37,1402.84,353.86,1509.12,474.07,1533.52Zm52.68-442.46c101.82,0,184.36,82.55,184.36,184.37a184.36,184.36,0,0,1-368.72,0C342.39,1173.61,424.93,1091.06,526.75,1091.06Z"/></svg>