<svg id="Layer_1" data-name="Layer 1" xmlns="http://www.w3.org/2000/svg" viewBox="0 0 2062.64 2000"><defs><style>.cls-1{fill:#ccdea0;}.cls-2{fill:#33b08c;}.cls-3{opacity:0.25;}.cls-4{fill:#fff;}.cls-5{fill:#152547;}</style></defs><path class="cls-1" d="M392.21,830.72A327.35,327.35,0,0,1,360.14,689c0-181.61,147.23-328.83,328.83-328.83A327.57,327.57,0,0,1,830.73,392.2l80.89-80.89A436.22,436.22,0,0,0,689,250.53c-242.14,0-438.43,196.3-438.43,438.44a436.31,436.31,0,0,0,60.77,222.65Z"/><path class="cls-1" d="M985.74,547.22A327.49,327.49,0,0,1,1017.8,689c0,181.61-147.22,328.83-328.83,328.83a327.49,327.49,0,0,1-141.75-32.06l-80.9,80.89A436.32,436.32,0,0,0,689,1127.41c242.14,0,438.44-196.3,438.44-438.44a436.22,436.22,0,0,0-60.78-222.65Z"/><path class="cls-2" d="M1377.94,689a686.41,686.41,0,0,0-37-222.76h-66.58A628,628,0,0,0,911.73,103.56V37a689.42,689.42,0,0,0-445.52,0v66.58A628.05,628.05,0,0,0,103.56,466.21H37a689.3,689.3,0,0,0,0,445.51h66.58a628,628,0,0,0,362.65,362.66V1341a689.42,689.42,0,0,0,445.52,0v-66.58a628.06,628.06,0,0,0,362.66-362.66H1341A686.34,686.34,0,0,0,1377.94,689ZM689,1158.73c-259.44,0-469.75-210.32-469.75-469.76S429.53,219.22,689,219.22,1158.73,429.53,1158.73,689,948.41,1158.73,689,1158.73Z"/><path class="cls-1" d="M1473.86,1747.05a262,262,0,0,1-98.35-62.07c-102.75-102.75-102.75-269.35,0-372.1a261.9,261.9,0,0,1,98.35-62.07v-91.54a349.11,349.11,0,0,0-160.37,91.59c-137,137-137,359.14,0,496.14a349.11,349.11,0,0,0,160.37,91.59Z"/><path class="cls-1" d="M1649.27,1250.81a261.9,261.9,0,0,1,98.35,62.07c102.75,102.75,102.75,269.35,0,372.1a262,262,0,0,1-98.35,62.07v91.54A349.11,349.11,0,0,0,1809.64,1747c137-137,137-359.14,0-496.14a349.16,349.16,0,0,0-160.37-91.59Z"/><path class="cls-2" d="M2018.83,1293.73l37.67-37.67A551.58,551.58,0,0,0,1804.43,1004l-37.67,37.67a502.55,502.55,0,0,0-410.39,0L1318.7,1004a551.67,551.67,0,0,0-252.08,252.07l37.67,37.68a502.57,502.57,0,0,0,0,410.38l-37.67,37.67a551.63,551.63,0,0,0,252.08,252.08l37.67-37.67a502.55,502.55,0,0,0,410.39,0l37.67,37.67a551.63,551.63,0,0,0,252.08-252.08l-37.67-37.67A502.51,502.51,0,0,0,2018.83,1293.73Zm-723.06,471c-146.79-146.79-146.79-384.79,0-531.58s384.79-146.79,531.59,0,146.79,384.79,0,531.58S1442.57,1911.51,1295.77,1764.72Z"/><g class="cls-3"><rect x="708.48" y="638" width="697.25" height="813.46"/><rect x="766.58" y="785.28" width="581.04" height="58.1"/><rect x="766.58" y="872.44" width="581.04" height="58.1"/><rect x="766.58" y="959.6" width="581.04" height="58.1"/><rect x="766.58" y="1046.75" width="581.04" height="58.1"/><polygon points="1173.31 638 1173.31 600.11 940.89 600.11 940.89 638 708.48 638 708.48 696.1 1405.73 696.1 1405.73 638 1173.31 638"/></g><rect class="cls-4" x="682.69" y="612.21" width="697.25" height="813.46"/><rect class="cls-5" x="740.8" y="759.5" width="581.04" height="58.1"/><rect class="cls-5" x="740.8" y="846.66" width="581.04" height="58.1"/><rect class="cls-5" x="740.8" y="933.81" width="581.04" height="58.1"/><rect class="cls-5" x="740.8" y="1020.97" width="581.04" height="58.1"/><polygon class="cls-2" points="1147.53 612.21 1147.53 574.33 915.11 574.33 915.11 612.21 682.69 612.21 682.69 670.32 1379.94 670.32 1379.94 612.21 1147.53 612.21"/></svg>